<svg width="138" height="140" viewBox="0 0 138 140" fill="none" xmlns="http://www.w3.org/2000/svg">
<path d="M61.9801 67.8494C57.0171 76.8156 51.6115 84.4393 46.8741 89.5162C44.5081 92.0518 42.2889 93.9737 40.3577 95.1047C38.4572 96.2178 36.6804 96.6518 35.3263 95.8896C33.9722 95.1273 33.4059 93.3744 33.3478 91.1589C33.2888 88.9075 33.7462 85.9939 34.6445 82.6321C36.4431 75.901 40.0406 67.2596 45.0036 58.2933C49.9666 49.3271 55.3722 41.7034 60.1096 36.6265C62.4756 34.0909 64.6947 32.169 66.626 31.038C68.5265 29.9249 70.3033 29.4909 71.6574 30.2531C73.0115 31.0154 73.5778 32.7683 73.6359 34.9838C73.6949 37.2352 73.2375 40.1488 72.3392 43.5106C70.5406 50.2417 66.9431 58.8831 61.9801 67.8494Z" fill="#806A5F" stroke="#635047"/>
<path d="M65.9393 65.6035C64.0177 55.8802 63.3699 46.9399 63.8846 40.3403C64.1417 37.0442 64.6907 34.3039 65.5339 32.3365C66.3653 30.3964 67.5485 29.0641 69.1728 28.8849C70.7972 28.7057 72.4452 29.7257 73.9917 31.4035C75.5599 33.1049 77.1454 35.6097 78.6665 38.7096C81.712 44.9165 84.55 53.6152 86.4716 63.3384C88.3931 73.0617 89.0409 82.002 88.5262 88.6016C88.2692 91.8977 87.7202 94.638 86.877 96.6054C86.0455 98.5455 84.8623 99.8778 83.238 100.057C81.6137 100.236 79.9656 99.2162 78.4192 97.5384C76.851 95.837 75.2654 93.3322 73.7444 90.2323C70.6988 84.0254 67.8608 75.3267 65.9393 65.6035Z" fill="#806A5F" stroke="#635047"/>
<path d="M52.4357 70.2153C54.1353 59.741 56.7555 50.5274 59.6272 44.0964C61.0615 40.8844 62.5699 38.3407 64.0756 36.6821C65.5587 35.0484 67.1549 34.1514 68.7548 34.5751C70.3547 34.9988 71.5402 36.6325 72.3927 38.8849C73.2583 41.1715 73.8508 44.2716 74.1675 47.9474C74.8016 55.3068 74.339 65.0919 72.6394 75.5661C70.9398 86.0404 68.3196 95.254 65.4478 101.685C64.0135 104.897 62.5051 107.441 60.9994 109.099C59.5163 110.733 57.9202 111.63 56.3203 111.206C54.7204 110.783 53.5349 109.149 52.6823 106.897C51.8168 104.61 51.2242 101.51 50.9075 97.834C50.2735 90.4746 50.7361 80.6895 52.4357 70.2153Z" fill="#806A5F" stroke="#635047"/>
</svg>
