<svg width="280" height="270" viewBox="0 0 280 270" fill="none" xmlns="http://www.w3.org/2000/svg">
<path d="M114.376 188.357C115.303 177.709 117.146 168.187 119.385 161.397C120.503 158.005 121.728 155.268 123.004 153.411C123.641 152.483 124.306 151.753 124.996 151.274C125.689 150.793 126.432 150.55 127.203 150.653C127.973 150.755 128.658 151.188 129.252 151.841C129.843 152.49 130.367 153.379 130.83 154.454C131.757 156.605 132.483 159.601 132.992 163.209C134.011 170.434 134.173 180.223 133.246 190.871C132.319 201.519 130.476 211.041 128.238 217.831C127.12 221.222 125.894 223.959 124.619 225.816C123.981 226.745 123.316 227.475 122.627 227.954C121.934 228.435 121.19 228.678 120.42 228.575C119.649 228.472 118.965 228.039 118.371 227.387C117.779 226.737 117.255 225.849 116.792 224.774C115.865 222.623 115.139 219.626 114.63 216.018C113.612 208.794 113.45 199.004 114.376 188.357Z" fill="#806A5F" stroke="#635047"/>
<path d="M102.613 193.116C94.147 197.316 85.9807 199.853 79.6125 200.548C76.4307 200.895 73.6704 200.786 71.538 200.173C69.4091 199.562 67.8378 198.427 67.1717 196.667C66.5055 194.906 66.8572 192.817 67.9239 190.621C68.9924 188.421 70.8106 186.04 73.208 183.62C78.0063 178.776 85.2083 173.69 93.6748 169.49C102.141 165.29 110.307 162.753 116.676 162.058C119.857 161.711 122.618 161.82 124.75 162.432C126.879 163.044 128.45 164.178 129.117 165.939C129.783 167.7 129.431 169.788 128.364 171.985C127.296 174.185 125.478 176.565 123.08 178.986C118.282 183.83 111.08 188.916 102.613 193.116Z" fill="#806A5F" stroke="#635047"/>
<path d="M105.637 192.638C109.476 182.95 113.874 174.665 117.891 169.101C119.897 166.322 121.824 164.199 123.555 162.924C125.255 161.673 126.914 161.134 128.298 161.889C129.682 162.645 130.4 164.483 130.679 166.815C130.964 169.19 130.822 172.288 130.304 175.88C129.267 183.07 126.702 192.357 122.864 202.045C119.025 211.732 114.627 220.018 110.61 225.582C108.604 228.361 106.677 230.483 104.946 231.758C103.246 233.01 101.587 233.549 100.203 232.793C98.8189 232.037 98.1014 230.2 97.8218 227.868C97.5371 225.492 97.6787 222.394 98.1968 218.803C99.2341 211.612 101.799 202.326 105.637 192.638Z" fill="#806A5F" stroke="#635047"/>
<path d="M89.0823 184.627C95.3624 176.861 101.799 170.623 107.138 166.82C109.804 164.92 112.22 163.611 114.22 163.034C116.194 162.465 117.907 162.57 119 163.762C120.094 164.954 120.292 166.933 119.926 169.257C119.556 171.611 118.583 174.492 117.117 177.702C114.184 184.128 109.227 191.979 102.947 199.745C96.6668 207.511 90.2303 213.749 84.8915 217.552C82.225 219.452 79.8096 220.76 77.8095 221.338C75.8355 221.907 74.1223 221.802 73.029 220.61C71.9357 219.418 71.7373 217.439 72.103 215.115C72.4734 212.761 73.4466 209.88 74.9117 206.67C77.8453 200.244 82.8022 192.393 89.0823 184.627Z" fill="#806A5F" stroke="#635047"/>
<path d="M96.2485 191.782C101.736 183.165 107.527 176.054 112.464 171.525C114.93 169.262 117.203 167.625 119.134 166.775C121.035 165.938 122.755 165.803 123.97 166.852C125.184 167.902 125.571 169.859 125.435 172.223C125.297 174.622 124.611 177.631 123.468 181.037C121.179 187.855 117.016 196.374 111.529 204.991C106.042 213.608 100.251 220.719 95.3137 225.248C92.848 227.51 90.575 229.148 88.6439 229.997C86.7422 230.835 85.0222 230.97 83.8079 229.92C82.5937 228.871 82.2063 226.914 82.3425 224.55C82.4809 222.151 83.1667 219.141 84.31 215.736C86.5991 208.918 90.7614 200.398 96.2485 191.782Z" fill="#806A5F" stroke="#635047"/>
<path d="M198.5 133.407L185.285 173.138C174.106 206.752 136.52 224.238 101.334 212.193C81.4601 205.389 70.4681 184.481 76.783 165.493L112.02 59.5476C117.118 44.2173 134.259 36.2429 150.306 41.7364C189.319 55.0925 210.896 96.1346 198.5 133.407Z" fill="#ECCCA9" stroke="#806A5F" stroke-width="3"/>
</svg>
