<svg width="143" height="89" viewBox="0 0 143 89" fill="none" xmlns="http://www.w3.org/2000/svg">
<path d="M8.51602 36.6528C9.45488 40.7136 13.2892 44.36 20.0377 46.4614C26.6926 48.5337 35.5314 48.8389 44.9091 46.6708C54.2868 44.5027 62.0946 40.3488 67.1646 35.5658C72.3059 30.7155 74.1506 25.7561 73.2117 21.6953C72.2729 17.6344 68.4385 13.988 61.6901 11.8866C55.0351 9.81434 46.1964 9.50909 36.8186 11.6772C27.4409 13.8453 19.6331 17.9992 14.5631 22.7823C9.42187 27.6325 7.57716 32.5919 8.51602 36.6528Z" stroke="#806A5F" stroke-width="7"/>
<path d="M134.442 36.6528C133.503 40.7136 129.669 44.36 122.921 46.4614C116.266 48.5337 107.427 48.8389 98.0492 46.6708C88.6715 44.5027 80.8637 40.3488 75.7937 35.5658C70.6525 30.7155 68.8077 25.7561 69.7466 21.6953C70.6855 17.6344 74.5198 13.988 81.2683 11.8866C87.9232 9.81434 96.762 9.50909 106.14 11.6772C115.517 13.8453 123.325 17.9992 128.395 22.7823C133.536 27.6325 135.381 32.5919 134.442 36.6528Z" stroke="#806A5F" stroke-width="7"/>
<path d="M68.1641 39.0055C92.158 52.2837 115.805 58.1306 127.581 87.0324" stroke="#806A5F" stroke-width="7"/>
<path d="M72.2162 39.121C48.2223 52.3992 24.5753 58.246 12.799 87.1479" stroke="#806A5F" stroke-width="7"/>
<path d="M85.5 28.7473C85.5 38.3136 78.8076 45.2473 71.5 45.2473C64.1924 45.2473 57.5 38.3136 57.5 28.7473C57.5 19.1809 64.1924 12.2473 71.5 12.2473C78.8076 12.2473 85.5 19.1809 85.5 28.7473Z" fill="#806A5F" stroke="#806A5F" stroke-width="7"/>
</svg>
